<?xml version="1.0" encoding="UTF-8" standalone="no"?>
<svg xmlns="http://www.w3.org/2000/svg" version="1.2" baseProfile="tiny" viewBox="0.00 0.00 512.00 512.00">
<path fill="#000000" d="
  M 512.00 459.05
  L 512.00 464.84
  C 509.80 483.36 501.03 497.49 483.94 505.09
  Q 474.98 509.08 462.46 509.02
  Q 440.03 508.91 425.06 493.93
  Q 345.16 414.05 255.70 324.57
  A 0.48 0.48 0.0 0 0 255.02 324.57
  Q 171.69 408.01 86.20 493.46
  Q 80.37 499.29 75.62 502.07
  Q 64.64 508.49 51.45 508.81
  C 39.92 509.09 31.19 507.82 20.94 502.04
  C 8.30 494.91 1.08 480.01 0.00 465.61
  L 0.00 460.17
  Q 1.50 441.39 14.32 428.57
  Q 100.51 342.39 186.64 256.26
  A 0.54 0.52 45.0 0 0 186.63 255.51
  Q 100.62 169.50 14.56 83.44
  Q 8.13 77.01 4.69 65.65
  C -8.12 23.36 37.33 -12.73 75.78 9.79
  Q 80.50 12.55 87.11 19.13
  Q 171.64 103.28 255.57 186.64
  A 0.50 0.49 -44.6 0 0 256.26 186.64
  Q 340.88 102.01 425.57 17.32
  Q 433.53 9.36 445.53 5.93
  Q 464.43 0.52 482.02 9.84
  C 510.18 24.74 516.23 63.59 493.54 86.20
  Q 407.61 171.85 324.77 254.94
  Q 324.53 255.17 324.77 255.41
  Q 406.11 336.47 489.38 418.97
  Q 499.56 429.05 502.14 432.48
  Q 510.76 443.92 512.00 459.05
  Z"
/>
</svg>
