<?xml version="1.0" encoding="UTF-8" standalone="no"?>
<svg xmlns="http://www.w3.org/2000/svg" version="1.2" baseProfile="tiny" viewBox="0.00 0.00 512.00 512.00">
<path fill="#000000" d="
  M 360.33 0.00
  L 363.01 0.00
  Q 373.97 0.90 381.72 8.53
  Q 390.35 17.02 398.05 24.90
  C 406.96 34.01 409.00 47.84 402.60 58.79
  Q 400.50 62.37 393.38 69.48
  Q 299.39 163.33 206.94 255.89
  A 0.28 0.28 0.0 0 0 206.94 256.28
  Q 299.27 348.80 392.48 441.81
  Q 401.19 450.50 403.05 454.37
  C 408.26 465.19 406.76 477.93 398.34 486.59
  Q 391.07 494.06 381.34 503.59
  Q 373.61 511.16 362.69 512.00
  L 360.00 512.00
  Q 348.90 511.06 341.29 503.46
  Q 227.78 389.97 114.27 276.49
  Q 105.74 267.97 105.66 256.25
  Q 105.57 244.70 114.00 236.25
  Q 224.53 125.51 341.10 8.86
  Q 349.04 0.91 360.33 0.00
  Z"
/>
</svg>
