<?xml version="1.0" encoding="UTF-8" standalone="no"?>
<svg xmlns="http://www.w3.org/2000/svg" version="1.2" baseProfile="tiny" viewBox="0.00 0.00 512.00 512.00">
<path fill="#000000" d="
  M 426.69 138.78
  L 426.67 351.90
  A 74.78 74.78 0.0 0 1 351.89 426.68
  L 138.78 426.68
  A 74.78 74.78 0.0 0 1 64.00 351.90
  L 63.98 138.77
  A 74.78 74.78 0.0 0 1 138.77 63.98
  L 351.91 64.00
  A 74.78 74.78 0.0 0 1 426.69 138.78
  Z
  M 351.94 405.32
  A 53.38 53.38 0.0 0 0 405.32 351.94
  L 405.31 138.69
  A 53.38 53.38 0.0 0 0 351.93 85.31
  L 138.70 85.32
  A 53.38 53.38 0.0 0 0 85.32 138.70
  L 85.31 351.93
  A 53.38 53.38 0.0 0 0 138.69 405.31
  L 351.94 405.32
  Z"
/>
<rect fill="#000000" x="170.73" y="170.71" width="149.22" height="21.28" rx="10.47"/>
<rect fill="#000000" x="170.73" y="234.71" width="149.22" height="21.28" rx="10.47"/>
<rect fill="#000000" x="170.73" y="298.71" width="149.22" height="21.28" rx="10.47"/>
</svg>
