<?xml version="1.0" encoding="UTF-8" standalone="no"?>
<svg xmlns="http://www.w3.org/2000/svg" version="1.2" baseProfile="tiny" viewBox="0.00 0.00 512.00 512.00">
<path fill="#000000" d="
  M 149.31 0.00
  L 152.00 0.00
  Q 163.15 0.95 170.97 8.78
  Q 282.41 120.23 393.84 231.68
  Q 400.47 238.31 402.73 242.10
  Q 406.17 247.85 406.30 255.71
  Q 406.48 267.20 397.98 275.73
  Q 302.50 371.52 170.37 503.62
  Q 162.91 511.09 151.67 512.00
  L 148.96 512.00
  Q 138.02 511.10 130.27 503.48
  Q 117.14 490.57 113.64 486.86
  C 105.03 477.73 103.06 464.12 109.34 453.30
  Q 111.47 449.64 118.44 442.68
  Q 212.78 348.51 305.07 256.09
  A 0.33 0.32 -45.7 0 0 305.07 255.64
  Q 210.37 161.01 114.48 65.02
  C 103.38 53.91 102.85 36.58 113.93 25.17
  Q 122.09 16.78 130.51 8.51
  Q 138.30 0.85 149.31 0.00
  Z"
/>
</svg>
